<svg width="512" height="428" viewBox="0 0 512 428" fill="none" xmlns="http://www.w3.org/2000/svg">
<path d="M60.7112 134.132L57.6168 127.264L48.8122 131.231L54.803 138.805L60.7112 134.132ZM177.889 282.278L171.981 286.951L173.81 289.264L176.723 289.72L177.889 282.278ZM301.763 338.356L295.666 342.78L308.397 341.924L301.763 338.356ZM459.116 247.125L459.403 254.652L474.728 254.068L464.898 242.296L459.116 247.125ZM323.525 84.7495L329.307 79.9212L327.048 77.2166H323.525V84.7495ZM214.716 141.665L211.155 148.302L218.716 152.36L221.76 144.336L214.716 141.665ZM54.803 138.805L171.981 286.951L183.797 277.605L66.6193 129.459L54.803 138.805ZM176.723 289.72C188.375 291.545 210.976 294.812 234.471 302.802C258.106 310.839 281.532 323.297 295.666 342.78L307.86 333.933C291.026 310.728 264.092 296.961 239.322 288.538C214.412 280.067 190.56 276.638 179.055 274.836L176.723 289.72ZM308.397 341.924C315.504 328.708 336.1 307.406 364.176 288.949C392.09 270.599 426.116 255.92 459.403 254.652L458.829 239.597C421.81 241.008 385.11 257.158 355.9 276.36C326.852 295.456 303.924 318.431 295.128 334.788L308.397 341.924ZM464.898 242.296L329.307 79.9212L317.743 89.5778L453.334 251.953L464.898 242.296ZM323.525 77.2166C310.84 77.2166 286.323 82.0433 263.169 91.6899C240.332 101.204 216.214 116.476 207.673 138.993L221.76 144.336C227.95 128.017 246.797 114.831 268.962 105.597C290.81 96.4952 313.331 92.2824 323.525 92.2824V77.2166ZM218.278 135.027C194.925 122.496 137.147 91.4315 57.6168 127.264L63.8055 141C136.607 108.199 188.752 136.281 211.155 148.302L218.278 135.027Z" fill="black"/>
<path fill-rule="evenodd" clip-rule="evenodd" d="M108.632 194.717L177.889 282.278C178.525 282.378 179.195 282.482 179.899 282.591C204.845 286.466 271.644 296.841 301.763 338.356C302.026 337.866 302.305 337.369 302.598 336.863C304.371 339.636 305.765 342.18 306.785 344.376C250.539 328.306 180.121 357.767 151.943 374.507L42.2975 215.48C61.3705 202.765 86.3791 196.942 108.632 194.717Z" fill="black"/>
<path d="M451.583 314.92C392.994 283.952 332.173 326.08 306.785 345.052C315.49 308.225 381.277 270.839 406.386 259.679L451.583 314.92Z" fill="black"/>
</svg>
